HIERARCHY
ROOT Hips
{
	OFFSET 13.361450 91.980232 11.169650
	CHANNELS 6 Xposition Yposition Zposition Zrotation Yrotation Xrotation 
	JOINT LeftUpLeg
	{
		OFFSET 0.103455 1.857829 10.548506
		CHANNELS 3 Zrotation Yrotation Xrotation
		JOINT LeftLeg
		{
			OFFSET 43.499996 -0.000034 0.000000
			CHANNELS 3 Zrotation Yrotation Xrotation
			JOINT LeftFoot
			{
				OFFSET 42.372192 0.000015 -0.000006
				CHANNELS 3 Zrotation Yrotation Xrotation
				JOINT LeftToe
				{
					OFFSET 17.299999 -0.000000 -0.000002
					CHANNELS 3 Zrotation Yrotation Xrotation
					End Site
					{
						OFFSET 0.000000 0.000000 0.000000
					}
				}
			}
		}
	}
	JOINT RightUpLeg
	{
		OFFSET 0.103461 1.857828 -10.548504
		CHANNELS 3 Zrotation Yrotation Xrotation
		JOINT RightLeg
		{
			OFFSET 43.500038 -0.000027 0.000010
			CHANNELS 3 Zrotation Yrotation Xrotation
			JOINT RightFoot
			{
				OFFSET 42.372265 -0.000004 0.000015
				CHANNELS 3 Zrotation Yrotation Xrotation
				JOINT RightToe
				{
					OFFSET 17.299992 -0.000005 0.000008
					CHANNELS 3 Zrotation Yrotation Xrotation
					End Site
					{
						OFFSET 0.000000 0.000000 0.000000
					}
				}
			}
		}
	}
	JOINT Spine
	{
		OFFSET 6.901968 -2.603732 0.000000
		CHANNELS 3 Zrotation Yrotation Xrotation
		JOINT Spine1
		{
			OFFSET 12.588099 -0.000001 0.000001
			CHANNELS 3 Zrotation Yrotation Xrotation
			JOINT Spine2
			{
				OFFSET 12.343203 -0.000001 -0.000000
				CHANNELS 3 Zrotation Yrotation Xrotation
				JOINT Neck
				{
					OFFSET 25.832890 -0.000002 0.000001
					CHANNELS 3 Zrotation Yrotation Xrotation
					JOINT Head
					{
						OFFSET 11.766614 0.000006 0.000000
						CHANNELS 3 Zrotation Yrotation Xrotation
						End Site
						{
							OFFSET 0.000000 0.000000 0.000000
						}
					}
				}
				JOINT LeftShoulder
				{
					OFFSET 19.745895 -1.480368 6.000105
					CHANNELS 3 Zrotation Yrotation Xrotation
					JOINT LeftArm
					{
						OFFSET 11.284125 -0.000008 -0.000020
						CHANNELS 3 Zrotation Yrotation Xrotation
						JOINT LeftForeArm
						{
							OFFSET 33.000050 0.000002 0.000037
							CHANNELS 3 Zrotation Yrotation Xrotation
							JOINT LeftHand
							{
								OFFSET 25.200003 0.000015 -0.000001
								CHANNELS 3 Zrotation Yrotation Xrotation
								End Site
								{
									OFFSET 0.000000 0.000000 0.000000
								}
							}
						}
					}
				}
				JOINT RightShoulder
				{
					OFFSET 19.746092 -1.480371 -6.000073
					CHANNELS 3 Zrotation Yrotation Xrotation
					JOINT RightArm
					{
						OFFSET 11.284139 -0.000016 -0.000008
						CHANNELS 3 Zrotation Yrotation Xrotation
						JOINT RightForeArm
						{
							OFFSET 33.000092 0.000014 0.000002
							CHANNELS 3 Zrotation Yrotation Xrotation
							JOINT RightHand
							{
								OFFSET 25.199774 0.000137 0.000428
								CHANNELS 3 Zrotation Yrotation Xrotation
								End Site
								{
									OFFSET 0.000000 0.000000 0.000000
								}
							}
						}
					}
				}
			}
		}
	}
}
MOTION
Frames: 12
Frame Time: 0.033333
50.615559 94.678833 220.892700 104.044504 -3.075783 143.640504 144.306939 -0.195993 114.411631 -108.960191 2.510860 -1.850948 64.712579 -4.825673 -15.362053 21.454560 0.003090 0.000001 -177.745100 15.630715 162.727905 -20.790041 3.909459 -10.689022 79.789990 8.043997 2.091513 21.454560 -0.003108 -0.000018 8.981624 2.477687 -2.855257 7.833673 5.142487 -5.541738 7.515809 5.109119 -5.572630 17.860499 34.297365 19.010305 -3.724039 -29.535941 30.513703 42.552963 -71.484316 136.644068 -61.996657 -14.944351 -88.288268 -113.483614 5.193366 2.979177 -14.089375 -45.444599 0.074110 -21.080607 66.902523 161.647505 -51.382734 30.488516 80.777963 -104.304604 -1.306027 -2.895636 -29.112329 19.624266 -51.161249 
51.212029 94.762070 220.300598 104.083395 -3.681033 143.200298 145.345524 -0.201908 112.992400 -108.388409 2.365419 -2.181336 64.816016 -4.323419 -14.777989 21.454551 0.003089 -0.000005 -178.225030 16.665498 161.694128 -20.816987 3.920901 -10.599672 79.881330 8.146068 2.747319 21.454560 -0.003108 -0.000017 8.939455 2.628165 -3.077311 7.732201 5.455524 -5.978817 7.414441 5.419515 -6.011565 17.875466 34.356620 19.155798 -3.350062 -29.975436 30.647861 43.359974 -70.984489 135.881955 -62.487871 -14.672966 -87.642768 -113.290702 5.082949 2.978556 -16.424920 -46.451717 2.668996 -21.435481 67.262706 161.286735 -51.334158 30.006438 80.380815 -104.733007 -1.365922 -2.910475 -30.065212 19.627054 -51.544067 
51.689030 94.830231 219.632599 104.108107 -4.320935 142.641411 145.994201 -0.374492 111.243100 -108.155192 2.354952 -3.027739 65.174990 -3.489327 -14.392872 21.454548 0.003093 0.000003 -179.080238 17.698600 160.200612 -21.173598 4.228385 -10.325439 79.934831 8.006970 2.987099 21.454562 -0.003108 -0.000018 8.963040 2.735321 -3.265151 7.765035 5.682989 -6.347040 7.447369 5.644781 -6.381152 17.554840 34.499053 19.242955 -3.031868 -30.416776 30.836627 43.738056 -70.580504 135.532946 -62.898966 -14.547758 -87.127799 -112.984504 4.956594 2.974165 -18.419690 -46.803581 4.776889 -21.927783 67.382097 160.803799 -50.903679 29.438583 80.411667 -105.270304 -1.444418 -2.928825 -30.074324 19.519214 -51.610429 
52.070999 94.830711 219.020798 104.145693 -4.757514 142.131387 146.605065 -0.731108 109.813234 -108.090510 2.279023 -2.596068 65.399369 -3.722352 -14.253540 21.454558 0.003092 -0.000001 -179.664451 18.374799 159.273646 -21.436581 4.380093 -10.006650 79.818062 7.527128 2.012612 21.454560 -0.003108 -0.000017 9.053401 2.800460 -3.425301 7.934463 5.828617 -6.658912 7.616936 5.788524 -6.693863 17.317518 34.730501 19.452884 -2.738061 -30.775736 31.121320 43.771015 -70.274901 135.515010 -63.078586 -14.634146 -86.405930 -112.427011 4.721112 2.966534 -19.286835 -46.942910 5.640744 -22.747506 67.620000 159.995296 -50.400301 28.940611 80.200471 -105.588714 -1.449132 -2.942573 -30.019641 19.591324 -51.905999 
52.352840 94.819748 218.453903 104.134594 -5.232618 142.230903 146.770943 -0.747806 109.510301 -108.083605 2.208281 -1.829330 65.441620 -4.724008 -15.378070 21.454560 0.003090 0.000007 -179.828089 18.697791 158.687697 -21.482497 4.036597 -9.197966 80.037352 6.883855 1.767481 21.454558 -0.003108 -0.000017 9.097926 2.839612 -3.635359 8.010399 5.923472 -7.074596 7.693115 5.880886 -7.110084 17.434032 34.799527 19.635979 -2.645637 -31.033695 31.308996 43.095990 -69.823111 136.192989 -62.859112 -14.328374 -85.649473 -111.821002 4.466086 2.958098 -19.380629 -47.445236 5.514606 -23.420104 67.727309 159.336388 -49.656971 28.349851 79.552265 -105.371405 -1.369869 -2.938456 -30.035719 20.200932 -51.890306 
52.524189 94.793747 217.817902 103.880402 -5.736726 142.493811 146.592033 -0.702704 109.208366 -108.092012 2.228046 -2.323964 65.492833 -4.474471 -15.699687 21.454565 0.003089 0.000003 179.852268 19.193696 157.745965 -21.159663 4.228979 -8.337721 80.236008 6.202931 1.547883 21.454555 -0.003110 -0.000017 9.109325 2.903842 -3.765434 8.022642 6.061146 -7.330406 7.705460 6.017035 -7.366704 17.568247 34.886912 19.817948 -2.662567 -31.196957 31.506607 42.291022 -69.506423 136.990003 -62.280376 -14.138456 -84.570671 -111.110997 4.206142 2.945474 -19.105118 -48.749246 5.148834 -24.477803 67.389303 158.327801 -48.724582 27.755191 78.996493 -104.995703 -1.247000 -2.930378 -29.607979 20.563345 -51.684328 
52.623501 94.784302 217.155701 103.655094 -6.207402 142.652613 146.658546 -0.635610 108.830253 -107.915295 2.194271 -2.647626 65.483011 -3.919900 -14.896907 21.454562 0.003092 0.000010 179.510622 19.672391 157.218018 -20.833858 4.262764 -7.629249 80.469915 5.735952 1.716594 21.454558 -0.003108 -0.000017 9.186078 2.935468 -3.833414 8.170820 6.133693 -7.460269 7.853691 6.088806 -7.497004 17.566401 34.938675 20.072109 -2.788701 -31.125821 31.787659 41.413927 -69.061894 137.862055 -60.809741 -14.336325 -83.502765 -110.687908 4.100980 2.934473 -18.083809 -50.044373 3.571091 -25.590620 67.011321 157.266690 -47.742602 27.274620 78.868092 -104.813187 -1.131053 -2.930348 -29.264953 20.802275 -51.453311 
52.584709 94.760643 216.475098 103.268096 -6.750445 143.161107 146.500919 -0.411408 108.786677 -107.612403 2.106269 -2.355760 65.278105 -4.316084 -15.293017 21.454560 0.003086 0.000001 179.140726 20.005004 157.264013 -20.510636 4.135126 -6.798689 80.645997 5.153674 1.749780 21.454562 -0.003108 -0.000017 9.246702 2.956283 -3.930186 8.285601 6.185810 -7.649301 7.968590 6.139780 -7.686324 17.879163 35.127704 20.390770 -3.190593 -31.171706 32.184538 39.795045 -68.598397 139.453994 -58.976935 -14.743703 -82.405017 -110.351692 3.972493 2.928824 -18.780558 -51.792645 4.821408 -26.245822 66.629315 156.652779 -46.530100 26.453277 79.023035 -105.024807 -1.139110 -2.939154 -29.532140 21.801337 -51.326532 
52.491219 94.700089 215.767303 102.787203 -7.294341 143.995305 146.498870 -0.040892 108.431828 -107.362903 1.976816 -2.234347 64.731533 -4.490970 -15.320345 21.454557 0.003096 0.000004 178.734644 20.552200 157.012102 -20.026656 4.379831 -6.132144 80.837386 4.807521 2.306457 21.454563 -0.003107 -0.000018 9.293335 3.009002 -3.997671 8.372079 6.298784 -7.778423 8.055122 6.251974 -7.816118 18.082975 34.897253 20.730818 -3.414847 -30.862305 32.439331 38.375015 -68.186912 140.848036 -56.637889 -15.358380 -81.129854 -110.199993 3.852070 2.930588 -18.654640 -53.500694 4.758467 -27.196497 66.238792 155.752301 -45.408327 25.714279 79.302997 -105.308902 -1.191659 -2.948083 -29.608354 22.670274 -51.037031 
52.330212 94.686829 215.026901 102.021791 -7.807887 145.016200 146.603754 0.249798 107.689264 -107.289308 1.981563 -2.616305 64.436824 -4.256354 -15.336905 21.454563 0.003087 0.000005 178.294029 21.105804 157.637365 -19.180705 4.681632 -5.791710 80.616026 4.626534 2.543630 21.454557 -0.003109 -0.000017 9.312922 3.144481 -4.027039 8.401666 6.572473 -7.827451 8.084548 6.525358 -7.866795 18.245800 34.415629 21.121272 -3.563279 -30.685410 32.734409 35.646969 -67.849692 143.501947 -53.648899 -15.628130 -79.712413 -110.532992 3.848727 2.945217 -16.402208 -55.627506 2.399963 -27.689119 65.658212 155.309595 -44.075323 24.794454 79.794204 -105.827805 -1.236087 -2.967922 -29.200992 23.277385 -50.663512 
52.009029 94.624634 214.272797 101.055606 -8.425156 146.187099 146.540534 0.384295 106.718823 -107.281795 1.964161 -2.546172 63.571344 -4.151506 -14.636166 21.454560 0.003089 0.000004 177.414464 21.528589 158.218313 -18.790317 5.066368 -5.265024 80.616231 4.285366 2.684256 21.454553 -0.003110 -0.000018 9.308974 3.269886 -4.047134 8.385207 6.823832 -7.860008 8.067936 6.776526 -7.900872 18.719400 33.580557 21.579370 -4.232143 -30.042973 33.039367 30.974969 -67.470883 148.030034 -49.940188 -15.482826 -78.521139 -111.217493 3.995676 2.964606 -14.348651 -56.764825 0.271555 -28.082803 65.288399 154.953387 -42.849885 23.643282 80.110981 -106.568293 -1.320376 -2.994751 -29.417850 24.338969 -50.405580 
51.574390 94.545464 213.565094 99.882952 -8.979852 147.956405 146.332309 0.589396 106.142581 -107.097803 1.870671 -2.281076 62.789362 -4.565184 -14.899730 21.454553 0.003088 -0.000005 176.629853 21.709502 159.587602 -18.505527 5.144064 -4.929612 80.562703 4.115270 2.945174 21.454560 -0.003109 -0.000017 9.281307 3.433091 -4.065671 8.319045 7.148941 -7.888697 8.001564 7.101450 -7.931526 19.238625 32.724147 21.830856 -5.343951 -29.479978 33.292012 25.232083 -66.737007 153.587008 -45.917238 -14.953641 -77.535645 -111.871102 4.116255 2.984387 -13.686789 -57.670832 -0.120387 -28.349906 65.064006 154.715218 -41.590446 22.152708 80.159285 -107.576504 -1.550927 -3.023098 -29.844290 26.235810 -50.390509 
